{
  "asset": {
    "generator": "glTF-Transform v4.3.0",
    "version": "2.0",
    "extras": {
      "author": "Karumaki (https://sketchfab.com/Karumaki)",
      "license": "CC-BY-4.0 (http://creativecommons.org/licenses/by/4.0/)",
      "source": "https://sketchfab.com/3d-models/le-millefiori-34bdee9a8de34a68884e3e7d17925fe2",
      "title": "Le Millefiori"
    }
  },
  "accessors": [
    {
      "type": "VEC3",
      "componentType": 5126,
      "count": 18843,
      "max": [
        3797.583984375,
        3858.193359375,
        1369.9998779296875
      ],
      "min": [
        -115.00004577636719,
        -55.80435562133789,
        -9800
      ],
      "bufferView": 0,
      "byteOffset": 0
    },
    {
      "type": "VEC3",
      "componentType": 5126,
      "count": 18843,
      "bufferView": 0,
      "byteOffset": 12
    },
    {
      "type": "VEC4",
      "componentType": 5126,
      "count": 18843,
      "bufferView": 0,
      "byteOffset": 24
    },
    {
      "type": "VEC2",
      "componentType": 5126,
      "count": 18843,
      "bufferView": 0,
      "byteOffset": 40
    },
    {
      "type": "VEC2",
      "componentType": 5126,
      "count": 18843,
      "bufferView": 0,
      "byteOffset": 48
    },
    {
      "type": "VEC2",
      "componentType": 5126,
      "count": 18843,
      "bufferView": 0,
      "byteOffset": 56
    },
    {
      "type": "SCALAR",
      "componentType": 5125,
      "count": 24204,
      "bufferView": 1,
      "byteOffset": 0
    }
  ],
  "bufferViews": [
    {
      "buffer": 0,
      "byteOffset": 0,
      "byteLength": 1205952,
      "byteStride": 64,
      "target": 34962
    },
    {
      "buffer": 0,
      "byteOffset": 1205952,
      "byteLength": 96816,
      "target": 34963
    }
  ],
  "samplers": [
    {
      "magFilter": 9729,
      "minFilter": 9987,
      "wrapS": 10497,
      "wrapT": 10497
    }
  ],
  "textures": [
    {
      "source": 0,
      "sampler": 0
    },
    {
      "source": 1,
      "sampler": 0
    },
    {
      "source": 3,
      "sampler": 0
    },
    {
      "source": 2,
      "sampler": 0
    }
  ],
  "images": [
    {
      "mimeType": "image/png",
      "uri": "textures/skp_front_default_diffuse.png"
    },
    {
      "mimeType": "image/png",
      "uri": "textures/skp_front_default_normal.png"
    },
    {
      "mimeType": "image/png",
      "uri": "specular_1.png"
    },
    {
      "mimeType": "image/png",
      "uri": "metallicRoughness_1.png"
    }
  ],
  "buffers": [
    {
      "uri": "scene.bin",
      "byteLength": 1302768
    }
  ],
  "materials": [
    {
      "name": "skp_front_default",
      "alphaMode": "MASK",
      "alphaCutoff": 0.4,
      "doubleSided": true,
      "pbrMetallicRoughness": {
        "metallicFactor": 0,
        "baseColorTexture": {
          "index": 0
        },
        "metallicRoughnessTexture": {
          "index": 2
        }
      },
      "normalTexture": {
        "index": 1
      },
      "extensions": {
        "KHR_materials_ior": {
          "ior": 1000
        },
        "KHR_materials_specular": {
          "specularTexture": {
            "index": 3
          },
          "specularColorTexture": {
            "index": 3
          }
        }
      }
    }
  ],
  "meshes": [
    {
      "name": "Object003_skp_front_default_0",
      "primitives": [
        {
          "attributes": {
            "NORMAL": 1,
            "POSITION": 0,
            "TANGENT": 2,
            "TEXCOORD_0": 3,
            "TEXCOORD_1": 4,
            "TEXCOORD_2": 5
          },
          "mode": 4,
          "material": 0,
          "indices": 6
        }
      ]
    }
  ],
  "nodes": [
    {
      "name": "Sketchfab_model",
      "rotation": [
        -0.7071067811865475,
        0,
        0,
        0.7071067811865476
      ],
      "children": [
        1
      ]
    },
    {
      "name": "8996fb266feb47ef9d0aad65ba2e7a77.fbx",
      "rotation": [
        0.7071067811865475,
        0,
        0,
        0.7071067811865476
      ],
      "children": [
        2
      ]
    },
    {
      "name": "RootNode",
      "children": [
        3
      ]
    },
    {
      "name": "Object003",
      "children": [
        4
      ]
    },
    {
      "name": "Object_4",
      "translation": [
        -1855.04833984375,
        9800,
        1889.802734375
      ],
      "rotation": [
        -0.7071067811865475,
        0,
        0,
        0.7071067811865476
      ],
      "children": [
        5
      ]
    },
    {
      "name": "Object003_skp_front_default_0",
      "mesh": 0
    }
  ],
  "scenes": [
    {
      "name": "Sketchfab_Scene",
      "nodes": [
        0
      ]
    }
  ],
  "scene": 0,
  "extensionsUsed": [
    "KHR_materials_ior",
    "KHR_materials_specular"
  ]
}